# xmcd
#
# Track frame offsets:
# 150
# 17288
# 30005
# 46756
# 62637
# 76480
# 91600
# 108452
# 124911
# 140061
# 154339
# 171338
# 189873
# 204756
#
# Disc length: 2927 seconds
#
#
# Revision: 11
# Processed by: cddbd v1.5.1PL0 Copyright (c) Steve Scherf et al.
# Submitted via: FreeRIP 2.942 
#
DISCID=a30b6d0e
DTITLE=Rionegro and Solimões - Na Sola Da Bota
DYEAR=2003
DGENRE=Country
TTITLE0=No Fim Desta Estrada
TTITLE1=Na Sola Da Bota
TTITLE2=Clima De Rodeio
TTITLE3=Amor Desencontrado
TTITLE4=O Grito Da Galera
TTITLE5=Não Tô Nem Aí
TTITLE6=Não Penso Em Voltar
TTITLE7=Madrugada Triste
TTITLE8=Temporal De Lágrimas
TTITLE9=Tendel
TTITLE10=Vai Começar De Novo (Clima de Amor)
TTITLE11=Lençol Gelado
TTITLE12=Cai Na Realidade
TTITLE13=Movido Pela Emoção
EXTD=YEAR: 2003 ID3G: 2
EXTT0=
EXTT1=
EXTT2=
EXTT3=
EXTT4=
EXTT5=
EXTT6=
EXTT7=
EXTT8=
EXTT9=
EXTT10=
EXTT11=
EXTT12=
EXTT13=
PLAYORDER=
